<?xml version="1.0" encoding="UTF-8" standalone="no"?>
<!-- Created with Inkscape (http://www.inkscape.org/) -->

<svg
   xmlns:dc="http://purl.org/dc/elements/1.1/"
   xmlns:cc="http://creativecommons.org/ns#"
   xmlns:rdf="http://www.w3.org/1999/02/22-rdf-syntax-ns#"
   xmlns:svg="http://www.w3.org/2000/svg"
   xmlns="http://www.w3.org/2000/svg"
   xmlns:sodipodi="http://sodipodi.sourceforge.net/DTD/sodipodi-0.dtd"
   xmlns:inkscape="http://www.inkscape.org/namespaces/inkscape"
   width="277.00787"
   height="277.00787"
   viewBox="0 0 73.291665 73.291668"
   version="1.1"
   id="svg8"
   inkscape:version="0.92.1 r15371"
   sodipodi:docname="logo-white.svg"
   inkscape:export-filename="C:\Users\anovak\Documents\Workspace\macroverse-website\img\logo.png"
   inkscape:export-xdpi="35.953995"
   inkscape:export-ydpi="35.953995">
  <defs
     id="defs2" />
  <sodipodi:namedview
     id="base"
     pagecolor="#ffffff"
     bordercolor="#666666"
     borderopacity="1.0"
     inkscape:pageopacity="0.0"
     inkscape:pageshadow="2"
     inkscape:zoom="0.98994949"
     inkscape:cx="433.22378"
     inkscape:cy="283.97739"
     inkscape:document-units="mm"
     inkscape:current-layer="layer1"
     showgrid="false"
     inkscape:window-width="1920"
     inkscape:window-height="1018"
     inkscape:window-x="-8"
     inkscape:window-y="-8"
     inkscape:window-maximized="1"
     units="px"
     fit-margin-top="10"
     fit-margin-left="10"
     fit-margin-right="10"
     fit-margin-bottom="10" />
  <metadata
     id="metadata5">
    <rdf:RDF>
      <cc:Work
         rdf:about="">
        <dc:format>image/svg+xml</dc:format>
        <dc:type
           rdf:resource="http://purl.org/dc/dcmitype/StillImage" />
        <dc:title></dc:title>
      </cc:Work>
    </rdf:RDF>
  </metadata>
  <g
     inkscape:label="Layer 1"
     inkscape:groupmode="layer"
     id="layer1"
     transform="translate(2.6458333,-226.35417)">
    <path
       style="opacity:1;fill:#ffffff;fill-opacity:0.94117647;stroke-width:1.99853897;stroke-linecap:butt;stroke-miterlimit:4;stroke-dasharray:none"
       d="M 138.50391 10 A 128.50394 128.50394 0 0 0 10 138.50391 A 128.50394 128.50394 0 0 0 138.50391 267.00781 A 128.50394 128.50394 0 0 0 267.00781 138.50391 A 128.50394 128.50394 0 0 0 138.50391 10 z M 138.50391 119.60547 A 18.897638 18.897638 0 0 1 157.40234 138.50391 A 18.897638 18.897638 0 0 1 138.50391 157.40234 A 18.897638 18.897638 0 0 1 119.60547 138.50391 A 18.897638 18.897638 0 0 1 138.50391 119.60547 z "
       transform="matrix(0.26458333,0,0,0.26458333,-2.6458333,226.35417)"
       id="path4485" />
  </g>
</svg>
